<svg width="12" height="9" viewBox="0 0 12 9" fill="none" xmlns="http://www.w3.org/2000/svg">
<path d="M1.79002 0.0826931L10.21 0.0826931C10.5424 0.0822118 10.8682 0.175878 11.1496 0.352852C11.431 0.529825 11.6565 0.782869 11.8 1.08269C11.9681 1.43843 12.0328 1.83423 11.9868 2.22496C11.9408 2.6157 11.786 2.98566 11.54 3.29269L7.33002 8.39269C7.16481 8.58332 6.96054 8.73621 6.73107 8.84099C6.5016 8.94577 6.25228 9 6.00002 9C5.74776 9 5.49845 8.94577 5.26897 8.84099C5.0395 8.73621 4.83524 8.58332 4.67002 8.39269L0.460021 3.29269C0.214015 2.98566 0.0592068 2.6157 0.013238 2.22496C-0.0327309 1.83423 0.0319901 1.43843 0.200023 1.08269C0.343564 0.782869 0.569081 0.529825 0.850469 0.352852C1.13186 0.175878 1.45761 0.0822118 1.79002 0.0826931Z" fill="#DC2626"/>
</svg>
