<?xml version="1.0" encoding="utf-8"?>
<!-- Generator: Adobe Illustrator 26.0.1, SVG Export Plug-In . SVG Version: 6.00 Build 0)  -->
<svg version="1.1" id="Layer_1" xmlns="http://www.w3.org/2000/svg" xmlns:xlink="http://www.w3.org/1999/xlink" x="0px" y="0px"
	 viewBox="0 0 1053 360" style="enable-background:new 0 0 1053 360;" xml:space="preserve">
<style type="text/css">
	.st0{fill:#000000;}
</style>
<g>
	<path class="st0" d="M278.4,180.3L204.8,67.6c0,0-22-14.7-34.3,9.8v105.4l-74-121.4l-37.5,2.5L174.1,238c0,0,24.5,12.2,26.9-9.8
		V120.5l78.5,112.6c0,0,14.7,19.6,29.4,0V61.4h-28.2L278.4,180.3z"/>
	<rect x="328.6" y="61.4" class="st0" width="31.8" height="181.4"/>
	<polygon class="st0" points="409.5,61.4 377.7,61.4 377.7,242.8 380.2,242.8 409.5,242.8 456.2,242.8 456.2,211 409.5,211 	"/>
	<polygon class="st0" points="657.2,61.4 625.2,61.4 625.2,242.8 627.8,242.8 657.2,242.8 703.7,242.8 703.7,211 657.2,211 	"/>
	<rect x="716.1" y="61.4" class="st0" width="31.8" height="181.4"/>
	<polygon class="st0" points="769.9,61.4 769.9,93.4 769.9,139.9 769.9,171.7 769.9,242.8 801.9,242.8 801.9,171.7 841,171.7 
		841,139.9 801.9,139.9 801.9,93.4 848.4,93.4 848.4,61.4 801.9,61.4 	"/>
	<polygon class="st0" points="948.9,93.4 948.9,61.4 892.6,61.4 870.4,61.4 860.6,61.4 860.6,242.8 870.4,242.8 892.6,242.8 
		948.9,242.8 948.9,211 892.6,211 892.6,166.8 939.1,166.8 939.1,135 892.6,135 892.6,93.4 	"/>
	<path class="st0" d="M527.5,61.4h-24.8h-31.8v33.1v115.2v33.1h31.8h20.9c49.4,0,89.4-40,89.4-89.4V147
		C613,99.8,574.7,61.4,527.5,61.4z M582.4,153.3c0,31.1-25.3,56.5-56.5,56.5h-23.2V94.5h24.1c30.7,0,55.7,24.9,55.7,55.7v3.1H582.4z
		"/>
</g>
<g>
	<path class="st0" d="M94,201.1l28.9-19.3l-3.4-5.1l-29.8,19.9c-7.6,3.4-8.3-8.8-8.3-8.8c-11,0.5-0.6,13-0.6,13
		c2.9,4.2,6.7,3.8,9.6,2.5l0.1,0.1l0.9-0.6C92.9,202.1,94,201.1,94,201.1z"/>
	<polygon class="st0" points="77.3,180.3 93.2,137.4 89.6,132 51.7,157.4 55.1,162.5 86.1,142 70.2,185.1 73.6,190.2 111.5,164.9 
		108.1,159.8 	"/>
	<path class="st0" d="M58.6,85.5l-2.6-4l-3.4-5.1l-5.4,3.5L28.5,92.3l-5.2,3.5l-8.7,5.8l3.4,5.1l8.7-5.8l2.3,3.3
		c5.4,8,16.1,10.2,24.1,4.8l1-0.7C61.6,103.4,63.7,93.1,58.6,85.5z M49.7,104.2c-5,3.3-11.9,1.9-15.2-3.1L32,97.4l18.6-12.4l2.6,3.9
		c3.3,4.9,1.9,11.6-3,14.9L49.7,104.2z"/>
	<path class="st0" d="M59.2,138.7c-4.9,3.3-11.4,2.4-14.3-2.1l-0.3-0.5c-3-4.4-1.4-10.8,3.7-14.1l23.8-16l-3.2-4.8l-23.5,15.6
		c-8,5.4-10.6,15.4-5.8,22.5l0.6,0.9c4.6,6.8,14.4,8.2,22,3.1l24.2-16.1l-3.2-4.8L59.2,138.7z"/>
	<path class="st0" d="M138.9,206l-51.7,4.8l3.2,4.8l34-3.2l-25.4,15.9l3.1,4.8l37.2-26.4C139.3,206.4,139.2,206,138.9,206z"/>
	<path class="st0" d="M142.3,239.6l5-3.4c4.3-2.9,5.4-9.7,2.5-14l-4-6l-3.4-5.1l-18.6,12.4l-0.3,0.2l-18.9,12.7l-0.3,0.2l8.6,12.8
		c2.3,3.4,7.5,5,11.1,2.6l5.2-3.5c3.7-2.4,4.7-7.5,3.5-11.4C134.8,240.1,139.1,241.8,142.3,239.6z M132.4,231.8l-1.7-2.5l-4.8,3.2
		l0.6,0.9c2.9,4.3,1.6,10.2-2.9,13.1c-3.5,2.4-7,0.7-9.2-2.7l-3-4.6l13.1-8.8l4.8-3.2l12.9-8.6l1.9,2.9c2.9,4.3,2.7,9.4-1.6,12.2
		C139.2,236.1,134.7,235.2,132.4,231.8z"/>
</g>
<g>
	<path class="st0" d="M219.7,288.8h-18.9l-3.8,11h-2.7l14.6-42h2.9l14.6,42h-2.7L219.7,288.8z M218.9,286.4l-8.7-25l-8.7,25H218.9z"
		/>
	<path class="st0" d="M262.7,269.5c2.3,2.4,3.4,6,3.4,10.8v19.4h-2.5v-19.3c0-4-0.9-7-2.7-9.1c-1.8-2.1-4.3-3.2-7.5-3.2
		c-3.3,0-6,1.1-8,3.4c-1.9,2.3-3,5.7-3,10.2v17.9h-2.5v-33.2h2.5v7.1c0.9-2.5,2.3-4.4,4.3-5.7c2.1-1.4,4.3-1.9,7-1.9
		C257.4,265.9,260.4,267.1,262.7,269.5z"/>
	<path class="st0" d="M282.7,274.1c1.3-2.6,3.1-4.6,5.2-5.9c2.3-1.4,4.8-2.1,7.6-2.1c3.2,0,5.8,0.8,8.2,2.5c2.3,1.7,4,3.9,4.9,6.6
		v-20.8h2.5v45.3h-2.5V291c-0.9,2.7-2.5,5-4.8,6.7c-2.3,1.7-5,2.6-8.3,2.6c-2.9,0-5.5-0.7-7.6-2.1c-2.3-1.4-4-3.4-5.2-6
		c-1.3-2.6-1.9-5.6-1.9-9C280.8,279.7,281.5,276.7,282.7,274.1z M307,275.5c-1.1-2.2-2.6-3.9-4.6-5.1c-1.9-1.3-4.1-1.8-6.5-1.8
		c-2.5,0-4.7,0.6-6.6,1.7c-1.9,1.1-3.4,2.9-4.4,5c-1,2.2-1.6,4.8-1.6,7.9c0,3,0.6,5.6,1.6,7.9c1,2.2,2.5,3.9,4.4,5
		c1.9,1.1,4.1,1.8,6.6,1.8c2.4,0,4.6-0.6,6.5-1.8c1.9-1.3,3.4-3,4.6-5.1c1.1-2.2,1.6-4.8,1.6-7.8C308.8,280.2,308.2,277.6,307,275.5
		z"/>
	<path class="st0" d="M372,277.7c-2.2,2.1-5.5,3.2-9.8,3.2h-8.6v18.8h-2.5v-42.9h11.1c4.3,0,7.6,1.1,9.8,3.3
		c2.2,2.2,3.2,5.1,3.2,8.8C375.3,272.7,374.1,275.7,372,277.7z M372.6,269c0-3.2-0.8-5.6-2.5-7.2c-1.7-1.6-4.3-2.5-8-2.5h-8.6v19.2
		h8.6C369.2,278.5,372.6,275.3,372.6,269z"/>
	<path class="st0" d="M389.6,274.1c1.3-2.6,3.1-4.6,5.2-5.9c2.3-1.4,4.8-2.1,7.6-2.1c3.3,0,6,0.9,8.3,2.6c2.3,1.7,3.9,3.9,4.8,6.5
		v-8.7h2.5v33.2h-2.5V291c-0.9,2.7-2.5,4.9-4.8,6.6c-2.3,1.7-5,2.6-8.2,2.6c-2.9,0-5.5-0.7-7.6-2.1c-2.3-1.4-4-3.4-5.2-6
		c-1.3-2.6-1.9-5.6-1.9-9C387.7,279.7,388.4,276.7,389.6,274.1z M414,275.5c-1.1-2.2-2.6-3.9-4.6-5.1c-1.9-1.3-4.1-1.8-6.5-1.8
		c-2.5,0-4.7,0.6-6.6,1.7c-1.9,1.1-3.4,2.9-4.4,5c-1,2.2-1.6,4.8-1.6,7.9c0,3,0.6,5.6,1.6,7.9c1,2.2,2.5,3.9,4.4,5
		c1.9,1.1,4.1,1.8,6.6,1.8c2.4,0,4.6-0.6,6.5-1.8c1.9-1.3,3.4-3,4.6-5.1c1.1-2.2,1.6-4.8,1.6-7.8C415.7,280.2,415.1,277.6,414,275.5
		z"/>
	<path class="st0" d="M441.3,267.8c1.9-1.3,4.3-1.9,7.4-1.9v2.9H448c-3.1,0-5.6,0.9-7.5,2.7c-2.1,1.8-3,4.9-3,9.1v19.2h-2.5v-33.2
		h2.5v6.8C438,271,439.4,269.1,441.3,267.8z"/>
	<path class="st0" d="M477.8,299.8l-13.5-15.2v15.2h-2.5v-45.3h2.5v27l13.2-15.1h3.5L466.2,283l15.1,16.7h-3.4V299.8z"/>
	<path class="st0" d="M495.8,297.8c-2.2-1.6-3.4-4-3.7-7h2.6c0.2,2.2,1.1,3.9,2.7,5.1c1.6,1.3,3.9,1.9,6.7,1.9
		c2.4,0,4.2-0.7,5.6-1.9c1.4-1.3,2.1-2.9,2.1-4.8c0-1.3-0.3-2.4-1.1-3.2s-1.7-1.5-2.7-1.9c-1.1-0.5-2.6-0.9-4.4-1.5
		c-2.3-0.7-4.1-1.3-5.5-1.9c-1.4-0.7-2.6-1.6-3.5-2.9c-1-1.3-1.5-3-1.5-5c0-1.6,0.5-3,1.3-4.3c0.9-1.4,2.1-2.4,3.7-3.2
		c1.6-0.8,3.3-1.1,5.2-1.1c3.2,0,5.8,0.9,7.8,2.6c1.9,1.7,3.1,4.1,3.2,7.2h-2.5c-0.1-2.2-0.9-4-2.4-5.4c-1.5-1.4-3.5-2.1-6.2-2.1
		c-2.2,0-4,0.6-5.5,1.8c-1.5,1.3-2.2,2.7-2.2,4.4c0,1.6,0.5,2.9,1.3,3.8c0.8,0.9,1.8,1.7,3,2.2c1.1,0.5,2.7,1,4.8,1.6
		c2.2,0.6,3.9,1.3,5.2,1.8c1.3,0.6,2.4,1.5,3.3,2.6c0.9,1.1,1.4,2.6,1.4,4.4c0,1.7-0.5,3.3-1.3,4.7c-0.9,1.4-2.1,2.5-3.7,3.2
		c-1.6,0.8-3.3,1.1-5.2,1.1C500.7,300.2,497.9,299.4,495.8,297.8z"/>
	<path class="st0" d="M579.4,262.6c3.7,3.8,5.5,9.1,5.5,15.9c0,6.7-1.8,12-5.5,15.7c-3.7,3.8-8.9,5.6-15.6,5.6h-11.2v-42.9h11.2
		C570.5,256.9,575.7,258.7,579.4,262.6z M577.4,292.5c3.2-3.3,4.7-8,4.7-14s-1.6-10.7-4.7-14.1c-3.2-3.4-7.8-5-13.7-5h-8.7v38.3h8.7
		C569.8,297.5,574.4,295.8,577.4,292.5z"/>
	<path class="st0" d="M649.8,268.7c2.3-1.7,5-2.6,8.3-2.6c2.9,0,5.5,0.7,7.6,2.1c2.3,1.4,4,3.3,5.2,5.9s1.9,5.6,1.9,9
		s-0.7,6.4-1.9,9c-1.3,2.6-3.1,4.6-5.2,6c-2.3,1.4-4.8,2.1-7.6,2.1c-3.2,0-5.9-0.9-8.2-2.6c-2.3-1.7-3.9-3.9-4.8-6.6v24.3h-2.5
		v-48.8h2.5v8.8C645.9,272.6,647.5,270.4,649.8,268.7z M668.7,275.3c-1-2.2-2.5-3.9-4.4-5c-1.9-1.1-4.1-1.7-6.6-1.7
		c-2.4,0-4.6,0.6-6.5,1.8c-1.9,1.3-3.4,3-4.6,5.1c-1.1,2.2-1.6,4.8-1.6,7.6c0,3,0.6,5.5,1.6,7.8c1.1,2.2,2.6,4,4.6,5.1
		c1.9,1.3,4.1,1.8,6.5,1.8c2.5,0,4.7-0.6,6.6-1.8c1.9-1.1,3.4-2.9,4.4-5c1-2.2,1.6-4.8,1.6-7.9C670.3,280.1,669.9,277.5,668.7,275.3
		z"/>
	<path class="st0" d="M688.2,274.1c1.3-2.6,3.1-4.6,5.2-5.9c2.3-1.4,4.8-2.1,7.6-2.1c3.3,0,6,0.9,8.3,2.6c2.3,1.7,3.9,3.9,4.8,6.5
		v-8.7h2.5v33.2h-2.5V291c-0.9,2.7-2.5,4.9-4.8,6.6c-2.3,1.7-5,2.6-8.2,2.6c-2.9,0-5.5-0.7-7.6-2.1c-2.3-1.4-4-3.4-5.2-6
		c-1.3-2.6-1.9-5.6-1.9-9C686.3,279.7,687,276.7,688.2,274.1z M712.5,275.5c-1.1-2.2-2.6-3.9-4.6-5.1c-1.9-1.3-4.1-1.8-6.5-1.8
		c-2.5,0-4.7,0.6-6.6,1.7c-1.9,1.1-3.4,2.9-4.4,5c-1,2.2-1.6,4.8-1.6,7.9c0,3,0.6,5.6,1.6,7.9c1,2.2,2.5,3.9,4.4,5
		c1.9,1.1,4.1,1.8,6.6,1.8c2.4,0,4.6-0.6,6.5-1.8c1.9-1.3,3.4-3,4.6-5.1s1.6-4.8,1.6-7.8C714.2,280.2,713.7,277.6,712.5,275.5z"/>
	<path class="st0" d="M739.9,267.8c1.9-1.3,4.3-1.9,7.4-1.9v2.9h-0.8c-3.1,0-5.6,0.9-7.5,2.7c-2.1,1.8-3,4.9-3,9.1v19.2h-2.5v-33.2
		h2.5v6.8C736.6,271,738,269.1,739.9,267.8z"/>
	<path class="st0" d="M764.2,269v21.9c0,2.4,0.5,4.1,1.3,5c0.8,0.9,2.3,1.4,4.4,1.4h3.4v2.4h-3.9c-2.7,0-4.7-0.7-5.9-2.1
		c-1.3-1.4-1.9-3.7-1.9-6.8v-21.9h-4.7v-2.4h4.7V258h2.5v8.4h9.1v2.4h-9V269z"/>
	<path class="st0" d="M832.4,269.5c2.3,2.4,3.3,6,3.3,10.8v19.4h-2.4v-19.3c0-4-0.9-7-2.6-9.1c-1.7-2.1-4.2-3.2-7.2-3.2
		c-3.2,0-5.7,1.1-7.6,3.5s-2.9,5.8-2.9,10.3v17.7h-2.5v-19.3c0-4-0.9-7-2.6-9.1c-1.7-2.1-4.2-3.2-7.2-3.2c-3.2,0-5.7,1.1-7.6,3.5
		s-2.9,5.8-2.9,10.3v17.7h-2.5v-33.2h2.5v7.2c0.9-2.6,2.3-4.6,4.2-5.9s4.2-1.9,6.7-1.9c2.9,0,5.2,0.8,7.2,2.4c2.1,1.6,3.4,3.9,4.2,7
		c0.7-3.1,2.2-5.4,4.2-7c2.1-1.6,4.6-2.4,7.3-2.4C827.3,265.9,830.3,267.1,832.4,269.5z"/>
	<path class="st0" d="M876.5,296c-2.2,1.8-4.6,3-7.2,3.4c-2.6,0.5-5.2,0.1-8-1c-2.6-1.1-5.1-3.1-7.3-5.7c-2.3-2.6-3.8-5.4-4.4-8.1
		c-0.7-2.7-0.6-5.5,0.2-8s2.4-4.7,4.6-6.6c2.3-1.9,4.7-3.1,7.2-3.4c2.5-0.3,5-0.1,7.3,0.9s4.3,2.5,6,4.4c0.9,1.1,1.6,1.9,2.1,2.6
		l-20.3,17.2c1.9,2.2,4.1,3.8,6.3,4.6c2.2,0.8,4.3,1,6.4,0.6c2.1-0.5,4-1.4,5.6-2.7 M867.7,269.6c-2.2-0.8-4.2-1-6.3-0.6
		c-2.1,0.5-3.9,1.4-5.6,2.7c-1.6,1.4-2.9,3.1-3.5,5c-0.8,1.9-0.9,4.1-0.5,6.4c0.5,2.3,1.6,4.6,3.4,6.8l18.4-15.6
		C871.8,272.1,869.9,270.6,867.7,269.6z"/>
	<path class="st0" d="M917.7,269.5c2.3,2.4,3.4,6,3.4,10.8v19.4h-2.5v-19.3c0-4-0.9-7-2.7-9.1c-1.8-2.1-4.3-3.2-7.5-3.2
		c-3.3,0-6,1.1-8,3.4c-1.9,2.3-3,5.7-3,10.2v17.9h-2.5v-33.2h2.5v7.1c0.9-2.5,2.3-4.4,4.3-5.7c2.1-1.4,4.3-1.9,7-1.9
		C912.4,265.9,915.4,267.1,917.7,269.5z"/>
	<path class="st0" d="M938.7,300.7V269h-6.8v-2.4h6.8v-8.4h2.5v8.4h7.8v2.4h-7.8v31.7"/>
	<path class="st0" d="M624.9,295.7c-2.2,1.8-4.6,3-7.2,3.4c-2.6,0.5-5.2,0.1-8-1c-2.6-1.1-5.1-3.1-7.3-5.7c-2.3-2.6-3.8-5.4-4.4-8.1
		c-0.7-2.7-0.6-5.5,0.2-8s2.4-4.7,4.6-6.6c2.3-1.9,4.7-3.1,7.2-3.4c2.5-0.3,5-0.1,7.3,0.9s4.3,2.5,6,4.4c0.9,1.1,1.6,1.9,2.1,2.6
		l-20.3,17.2c1.9,2.2,4.1,3.8,6.3,4.6c2.2,0.8,4.3,1,6.4,0.6s4-1.4,5.6-2.7 M616,269.3c-2.2-0.8-4.2-1-6.3-0.6
		c-2.1,0.5-3.9,1.4-5.6,2.7c-1.6,1.4-2.9,3.1-3.5,5c-0.8,1.9-0.9,4.1-0.5,6.4c0.5,2.3,1.6,4.6,3.4,6.8l18.4-15.6
		C620.2,271.8,618.2,270.2,616,269.3z"/>
</g>
<path class="st0" d="M1037.2,147.2c-1.6,3.1-3.3,6-4.9,9.1c-0.9,2.4-3.3,7.4-8.6,11.8c-5.4,4.4-11,5.7-13.5,6.2
	c3.8-2.2,16.5-10.2,20.9-25.8c1.4-5.1,1.5-9.8,1.3-13.5l-2.4,4.9l-19.6,17.1c-1.8,26.8-9.1,53.2-22.1,76c17.8-46,22-96.1,14.7-144.7
	c6.5,21.8,9,45.3,7.4,68.6c5.7-6,11.4-12.2,17.1-18.3c1.9-3.1,8.1-13.5,6.2-27c-1-7.3-4-12.8-6.2-16c-4.1,5.7-8.2,11.4-12.2,17.1
	c2.9-5.6,8.2-17.8,6.2-33.1c-0.7-5.4-2.2-9.8-3.7-13.5c-1.6,0.8-3.3,1.6-4.9,2.4c0.2-0.6,3.7-8.9-1.3-16c-2.9-4.2-7.1-5.7-8.6-6.2
	c-0.9-0.5-5.5-2.7-11.1-1.3c-5.2,1.5-8,5.4-8.6,6.3c-1.3,0.7-4.2,2.4-6.2,5.9c-2.7,5-1.5,9.9-1.3,11.1l7.3,9.8
	c1.3,5.4,2.4,10.6,3.7,16c-2.1-1.5-4.8-3.8-7.3-7.3c-3-4.1-4.2-8.1-4.9-10.6c-1.3,2.7-3.3,8.4-2.4,15.5c0.5,3.7,1.5,6.7,2.4,8.8
	c1.4,2.7,3.7,6.6,7.3,10.8c1.7,1.9,3.1,3.2,4.9,4.9c3,2.7,7.2,6.8,12.2,12.2c-3.9-2.7-8-6-12.2-9.8c-4.7-4.2-8.8-8.3-12.2-12.2
	c-1.1,3.4-2.4,8.4-2.4,14.7c0,8,2.1,14.4,3.7,18c1.5,5.1,4.1,11.8,8.6,18.7c3.3,5.1,6.7,9.1,9.8,12.2c-2.6-1.4-6.3-3.7-9.8-7.3
	c-5.4-5.6-7.6-11.6-8.6-14.9c0,3.3,0,6.7,0,10c0.8,3.7,3,10.5,8.6,17.2c4.3,5.1,9.1,8.2,12.2,9.8c-3.2-1.3-7.6-3.4-12.2-7.3
	c-4.1-3.5-6.8-7.1-8.6-9.8c-0.3,4.4-0.2,12.8,3.7,22c3,7,7,11.8,9.8,14.7c-1.4-0.5-3.2-1.3-4.9-2.4c-4.7-3.2-6.6-7.8-7.3-9.8
	c1.3,6.2,2.9,12.7,4.9,19.6c1.6,5.2,3.2,10.2,4.9,14.7c1.3,3.7-2.5,8-3.7,11.1c-2.2,5.8-4.4,7.6-7.3,11.8c1.8-1.4,5.2-4.4,7.3-6.8
	c2.7-3.1,3.5-4.9,4.9-7.3c1,0.2,9.2,1.9,16-3.7c4.8-4.1,5.9-9.5,6.2-11.1c-2.5,0.7-5.1,1.5-7.6,2.2c3.7-1.6,7.8-4.2,11.3-8.3
	c3.4-4,5.2-8.1,6.2-11.1c-5.8,2.6-11.6,5.1-17.5,7.8c2.7-1.4,5.8-3.5,8.9-6.5c5.1-5.1,7.5-10.5,8.6-13.5c-1.1,0.7-2.4,1.3-3.5,1.9
	c5.8-4,12.7-10.5,17-20.3C1038.4,162,1037.8,152,1037.2,147.2z"/>
</svg>
