<?xml version="1.0" encoding="utf-8"?>
<!-- Generator: Adobe Illustrator 26.0.1, SVG Export Plug-In . SVG Version: 6.00 Build 0)  -->
<svg version="1.1" id="Layer_1" xmlns="http://www.w3.org/2000/svg" xmlns:xlink="http://www.w3.org/1999/xlink" x="0px" y="0px"
	 viewBox="0 0 524.57 324" style="enable-background:new 0 0 524.57 324;" xml:space="preserve">
<style type="text/css">
	.st0{fill:#1C432A;}
	.st1{fill:#BC6C16;}
</style>
<g>
	<path class="st0" d="M480.97,132.58c-4.85,0-9.69-0.02-14.54,0.01c-1.42,0.01-2.22-0.09-2.77-1.93
		c-3.38-11.32-11.99-17.66-23.84-18.46c-7.36-0.5-14.62-0.65-21.59,2.13c-5.56,2.22-9.86,5.77-11.29,11.95
		c-1.48,6.39,0.84,12.17,6.38,15.75c6.66,4.29,14.35,5.53,21.84,7.38c12.71,3.13,25.82,4.68,37.91,10.19
		c13.72,6.26,24.43,15.46,27.23,30.88c4.69,25.77-6.2,46.64-30.83,56.99c-12.78,5.37-26.29,6.4-40,5.71
		c-11.29-0.57-22.35-2.24-32.43-7.67c-17.1-9.21-27.48-22.98-28.55-42.94c-0.14-2.58,0.61-3.2,3.13-3.16
		c8.9,0.16,17.81,0.05,26.71,0.09c1.07,0.01,2.42-0.66,2.83,1.35c2.41,11.88,10.71,17.56,21.73,20.13
		c9.22,2.15,18.52,2.33,27.72-0.06c4.73-1.23,9.11-3.48,12.13-7.48c6.29-8.32,2.76-19.14-7.38-23.4
		c-9.33-3.92-19.31-5.49-29.01-8.05c-10.61-2.79-21.3-5.31-31.21-10.21c-17.39-8.6-25.61-23.82-24.21-43.11
		c1.5-20.62,15.73-36.56,35.31-42.65c18.61-5.79,37.52-5.85,56.01,0.53c19.89,6.86,32.4,20.45,35.38,41.84
		c0.58,4.13,0.56,4.18-3.47,4.19C489.76,132.58,485.36,132.57,480.97,132.58z"/>
	<path class="st0" d="M67.26,219.2c18.8,0,37.12,0,55.45,0c9.13,0,18.26,0.11,27.39-0.08c2.7-0.06,3.1,0.82,3.05,3.25
		c-0.19,8.45-0.33,16.91-0.03,25.34c0.1,2.94-0.81,3.25-3.27,3.25c-27.73-0.06-55.46-0.03-83.19-0.03
		c-15.44,0-30.89-0.06-46.33,0.04c-2.32,0.02-3.09-0.46-2.99-2.91c0.2-5.18,0.22-10.37-0.03-15.54c-0.16-3.26,0.83-5.78,2.86-8.27
		c11.43-14.05,22.79-28.17,34.11-42.31c17.16-21.42,34.29-42.88,51.44-64.34c-0.63-1.09-1.62-0.48-2.4-0.48
		c-27.62-0.02-55.24-0.03-82.86,0.05c-2.19,0.01-3.13-0.3-3.08-2.85c0.17-9.01,0.14-18.03,0.02-27.04c-0.03-2.23,0.66-2.81,2.86-2.8
		c43.18,0.06,86.35,0.06,129.53,0c1.86,0,2.53,0.43,2.53,2.38c-0.02,7.88,0.11,15.77,0.18,23.65c0.02,2.11-1.5,3.47-2.66,4.92
		c-26.77,33.62-53.59,67.21-80.39,100.82C68.77,217.08,68.16,217.98,67.26,219.2z"/>
	<path class="st1" d="M175.55,116.68c-2.82-0.89-3.17-3.76-4.6-5.76c-0.9-13.01-1.88-26.02,1.35-38.88
		c2.27-9.02,6.94-16.44,14.78-21.87c-4.7,0.73-9.3,1.51-13.95,2.95c4.84-6.38,9.32-12.97,15.43-18.25c6.12-5.3,13.13-8.8,21.1-10.7
		c-2.88-0.56-5.74-0.41-8.65-1.55c4.17-1.61,8.4-2.07,12.57-2.72c8.53-1.34,17-1.31,25.41,1.03c9.17,2.55,15.26,8.29,18.16,17.32
		c0.54,1.66,1.46,2.54,3.02,3.24c5.58,2.5,9.8,6.33,11.29,12.54c0.44,1.84,1.83,2.7,3.26,3.64c6.75,4.49,13.42,9.08,19.31,14.7
		c0.97,0.93,1.96,1.87,2.76,2.95c2.5,3.38,1.65,6.47-2.25,8.02c-1.72,0.68-3.57,1.04-5.4,1.56c0.18,1.49,1.2,2.46,1.93,3.54
		c2.52,3.74,2.49,7.09-0.75,10.25c-2.51,2.44-4.03,5.04-3.74,8.61c0.05,0.63-0.31,1.3-0.46,1.95c-1.95,8.3-6.15,10.03-13.6,5.6
		c-3.78-2.25-7.41-4.75-10.45-7.94c-2.26-2.37-4.54-3.68-7.68-1.8c-3.1,1.85-4.8,6.07-3.78,9.31c0.86,2.74,2.52,5.04,4.29,7.21
		c13.03,16.02,14.35,34.3,10.46,53.6c-1.49,7.36-3.57,14.57-5.65,21.78c-0.77,2.66-1,5.48-1.48,8.23c-2.26-2.98-2.95-6.67-4.52-9.96
		c-8.43-17.75-20.66-32.19-36.96-43.22c-6.97-4.71-13.75-9.71-20.62-14.57c-0.82-2.17-2.64-3.56-4.13-5.21
		c-6.62-7.34-11.56-15.4-11.22-25.78c0.09-2.61,0.01-5.22,0.01-8.36c-1.57,3.43-3.15,6.36-4.26,9.45
		C175.5,110.47,174.15,113.46,175.55,116.68z M256.9,60.99c1.07,1.71,2.61,2.46,3.96,3.41c1.37,0.97,3.41,1.15,4.23-0.07
		c0.88-1.31-1.03-2.19-2.04-2.89C261.24,60.17,259.23,59.7,256.9,60.99z"/>
	<g>
		<path class="st0" d="M501.22,289.17c-1.18,2.97-2.39,5.94-3.53,8.92c-0.61,1.59-1.45,2.61-3.36,2.74
			c-2.03,0.14-2.12-1.43-2.59-2.53c-1.25-2.92-2.32-5.91-4.08-8.73c0,4.33-0.15,8.66,0.05,12.98c0.13,2.75-1.71,1.64-2.88,1.78
			c-1.34,0.16-2.56,0.34-2.5-1.9c0.18-6.97,0.06-13.96,0.14-20.93c0.01-1.05-0.74-2.99,1.28-2.78c2.07,0.22,4.88-1.63,6.12,1.71
			c1.51,4.08,3.03,8.16,4.79,12.9c1.8-4.53,3.64-8.41,4.89-12.48c1.19-3.84,4.08-1.98,6.16-2.11c2.56-0.16,1.22,2.16,1.24,3.31
			c0.13,6.53-0.01,13.06,0.16,19.59c0.06,2.22-0.55,2.77-2.78,2.83c-2.47,0.07-2.7-0.95-2.64-2.93c0.11-4.05,0.03-8.1,0.03-12.16
			C501.56,289.31,501.39,289.24,501.22,289.17z"/>
		<path class="st0" d="M119.33,293.35c1.78-4.68,3.46-8.57,4.73-12.59c1.2-3.79,4.12-1.85,6.22-2.03c2.53-0.22,1.37,2.11,1.39,3.27
			c0.13,6.64-0.02,13.3,0.18,19.94c0.07,2.28-0.8,2.58-2.71,2.48c-1.67-0.08-3.01,0.17-2.86-2.36c0.24-4.27,0.07-8.55-0.42-13.05
			c-1.18,2.86-2.36,5.71-3.52,8.57c-0.63,1.54-0.97,3.23-3.26,3.2c-2.38-0.02-2.5-1.93-3.11-3.39c-1.21-2.94-2.31-5.94-3.84-8.82
			c0,4.46-0.19,8.92,0.07,13.36c0.16,2.82-1.5,2.3-3.16,2.46c-2.01,0.2-2.41-0.63-2.38-2.46c0.1-6.98,0.13-13.97,0.01-20.95
			c-0.03-1.98,0.61-2.24,2.45-2.44c3.6-0.38,5.56,0.69,6.46,4.37C116.38,286.26,117.89,289.44,119.33,293.35z"/>
		<path class="st0" d="M280.79,288.57c-1.22,3.17-2.5,6.31-3.64,9.51c-0.54,1.51-1.21,2.45-3.01,2.58c-2.07,0.14-2.4-1.34-2.94-2.64
			c-1.28-3.08-2.47-6.2-4.13-9.3c0,4.36-0.12,8.72,0.05,13.06c0.09,2.09-0.48,2.73-2.59,2.66c-1.99-0.06-2.99-0.24-2.92-2.69
			c0.19-6.63-0.01-13.28,0.1-19.91c0.02-1.07-1.06-3.28,1.19-3.1c2.16,0.16,5.11-1.72,6.43,1.72c1.57,4.06,3.11,8.13,4.92,12.86
			c1.65-4.05,3.37-7.51,4.47-11.16c1.02-3.4,3.15-3.84,6.11-3.56c1.24,0.12,1.81,0.38,1.8,1.74c-0.03,7.43-0.02,14.85,0.04,22.28
			c0.02,2.93-2.14,1.43-3.38,1.74c-1.52,0.38-2.18-0.15-2.13-1.9c0.13-4.58,0.04-9.17,0.04-13.76
			C281.08,288.64,280.94,288.6,280.79,288.57z"/>
		<path class="st0" d="M168.57,288.67c0,5.08-0.1,9.58,0.06,14.08c0.05,1.48-0.52,1.94-1.64,1.58c-1.37-0.45-3.95,1.49-4.04-1.3
			c-0.24-7.65-0.08-15.3-0.1-22.96c0-0.97,0.42-1.58,1.39-1.41c1.84,0.32,4.02-1.09,5.45,1.35c2.61,4.45,5.38,8.8,8.4,13.7
			c0.8-4.28,0.45-8.12,0.39-11.92c-0.03-2.05,0.12-3.23,2.8-3.26c2.83-0.03,2.65,1.36,2.64,3.28c-0.06,6.53,0.03,13.06-0.05,19.58
			c-0.01,1,0.93,2.94-1.1,2.86c-1.75-0.07-3.86,1.28-5.3-1.4c-2.37-4.44-5.2-8.63-7.84-12.91
			C169.41,289.59,169.11,289.31,168.57,288.67z"/>
		<path class="st0" d="M329.79,294.78c0-5.15,0.11-9.37-0.05-13.58c-0.08-2.15,0.7-2.58,2.71-2.64c2.38-0.07,2.42,1.06,2.4,2.87
			c-0.08,6.65,0.03,13.3-0.07,19.95c-0.01,1,0.96,2.9-1.04,2.9c-1.8,0-3.93,1.1-5.37-1.44c-2.74-4.84-5.79-9.5-9.17-14.96
			c0,5.15-0.14,9.49,0.06,13.8c0.11,2.33-0.76,2.69-2.86,2.77c-2.37,0.09-2.73-0.81-2.69-2.89c0.13-6.42-0.01-12.85,0.11-19.27
			c0.02-1.22-1.14-3.38,1.13-3.56c2.04-0.17,4.48-1.05,6.02,1.62C323.65,284.95,326.52,289.44,329.79,294.78z"/>
		<path class="st0" d="M229.6,290.5c5.61-0.01,5.61-0.01,5.48,3.66c-0.31,8.72-6.9,12.95-15.24,9.79
			c-5.09-1.93-8.53-8.59-7.43-14.41c1.33-7,5.63-11,11.81-11.12c4.04-0.08,7.65,0.64,9.67,4.65c0.45,0.9,1.74,2.23,0.38,2.84
			c-1.32,0.59-3.3,1.93-4.61,0.2c-2.18-2.89-4.78-3.64-7.9-2.1c-2.85,1.4-4.27,6.08-3.35,10.59c0.62,3.02,2.4,4.99,5.61,5.46
			c1.16,0.17,2.21-0.04,3.29-0.43c1.81-0.65,3.01-2.22,2.83-3.76c-0.2-1.69-2.23-0.79-3.44-0.91c-1.42-0.15-3.02,0.39-2.94-2.02
			c0.05-1.53,0.14-2.67,2.14-2.46C227.11,290.61,228.36,290.5,229.6,290.5z"/>
		<path class="st0" d="M80.74,278.43c7.36,0.02,11.81,5.19,11.8,13.72c0,7.46-5.15,12.77-12.27,12.64
			c-7.16-0.13-11.95-5.15-11.91-12.64C68.41,285.66,72.34,277.82,80.74,278.43z M86.94,291.06c-0.34-2.59-0.78-5.45-3.74-7.07
			c-2.12-1.16-4.14-0.76-6.01,0.49c-2.39,1.59-2.89,4.1-2.94,6.75c-0.1,5.33,2.62,8.99,6.56,8.88
			C84.34,300.01,86.96,296.29,86.94,291.06z"/>
		<path class="st0" d="M53.71,278.46c7.17-0.11,11.66,4.8,11.79,12.89c0.12,7.9-4.74,13.47-11.79,13.5
			c-6.84,0.02-11.87-5.3-12.15-12.59C41.31,286.08,45.47,277.66,53.71,278.46z M59.97,291.41c0.02-4.3-2.02-7.51-5.12-8.04
			c-4.03-0.68-7.02,2.13-7.47,7.03c-0.47,5.06,2.32,9.41,6.18,9.64C57.3,300.28,59.94,296.72,59.97,291.41z"/>
		<path class="st0" d="M379.91,278.46c4.33-0.16,7.66,0.33,9.35,3.97c0.44,0.94,1.9,2.41,0.24,3.17c-1.32,0.6-3.32,1.62-4.59-0.22
			c-1.36-1.98-3.19-2.33-5.29-2.09c-1.15,0.13-2.18,0.56-2.36,1.97c-0.18,1.38,0.56,2.19,1.7,2.57c2.02,0.67,4.09,1.18,6.14,1.77
			c3.97,1.13,5.92,3.7,5.78,7.59c-0.13,3.56-2.68,6.41-6.42,7.17c-6.18,1.25-10.91-0.23-13.1-4.23c-0.57-1.04-1.88-2.44,0.06-3.32
			c1.53-0.69,3.25-1.61,4.73,0.5c1.99,2.82,4.68,3.56,7.24,2.22c0.99-0.52,2.03-1.16,1.92-2.49c-0.09-1.1-0.86-1.83-1.88-2.17
			c-2.22-0.75-4.49-1.36-6.69-2.15c-4.01-1.44-5.89-4.11-5.4-7.48c0.55-3.77,3.32-6.3,7.32-6.69
			C379.35,278.48,380.03,278.46,379.91,278.46z"/>
		<path class="st0" d="M424.58,278.36c3.25,0.02,6.4,0.38,7.99,3.79c0.52,1.11,1.93,2.72,0.31,3.52c-1.3,0.65-3.42,1.75-4.73-0.57
			c-0.98-1.73-2.66-1.87-4.4-1.82c-1.38,0.04-2.49,0.63-2.77,2.01c-0.3,1.45,0.68,2.27,1.96,2.69c2.12,0.7,4.3,1.24,6.39,2.03
			c3.83,1.45,5.24,3.79,4.9,7.8c-0.28,3.32-2.66,5.85-6.19,6.57c-5.95,1.22-10.74-0.29-12.82-4.16c-0.57-1.06-1.85-2.48-0.09-3.41
			c1.52-0.81,3.45-1.53,4.75,0.56c1.69,2.72,3.99,3.43,6.91,2.25c1.11-0.45,1.94-1.2,1.91-2.5c-0.03-1.29-0.81-2-2.01-2.37
			c-1.81-0.56-3.62-1.14-5.41-1.78c-4.44-1.59-6.57-4.32-6.06-7.7c0.59-3.91,3.86-6.62,8.35-6.91
			C423.9,278.34,424.24,278.36,424.58,278.36z"/>
		<path class="st0" d="M25.98,299.48c3.79,0,7.04,0.11,10.27-0.04c2.11-0.1,3.28,0.15,3.29,2.75c0.02,2.97-1.9,2.15-3.4,2.16
			c-4.73,0.05-9.46,0.05-14.19,0c-1.2-0.01-3.17,0.57-3.42-0.41c-0.33-1.32-0.17-3.06,0.92-4.45c3.26-4.15,6.41-8.39,9.61-12.58
			c0.72-0.94,1.46-1.87,2.42-3.11c-3.91,0-7.24-0.05-10.58,0.02c-1.52,0.04-2.48-0.24-2.02-2.04c0.32-1.26-0.94-3.3,1.99-3.21
			c5.4,0.17,10.81,0.03,16.22,0.05c2.58,0.01,3.31,1.21,1.94,3.54c-1.08,1.83-2.52,3.44-3.81,5.14
			C32.25,291.22,29.28,295.14,25.98,299.48z"/>
		<path class="st0" d="M239.94,291.18c0-3.49,0.08-6.98-0.04-10.46c-0.05-1.56,0.25-2.18,1.99-2.13c4.27,0.13,8.55,0.13,12.82,0
			c2.14-0.07,2.26,1,2.29,2.68c0.04,1.78-0.3,2.78-2.36,2.64c-2.02-0.14-4.06,0.06-6.07-0.09c-2.14-0.15-3.14,0.26-3.23,2.82
			c-0.1,2.8,1.38,2.52,3.11,2.45c1.35-0.05,2.71,0.05,4.05-0.1c2.15-0.24,2.97,0.44,2.92,2.76c-0.05,2.36-1.25,2.15-2.83,2.01
			c-1.23-0.12-2.5,0.13-3.7-0.06c-2.79-0.45-3.75,0.55-3.52,3.4c0.14,1.79,0.41,2.64,2.41,2.49c2.35-0.17,4.73,0.09,7.08-0.1
			c2.22-0.18,2.21,1.07,2.3,2.67c0.1,1.88-0.74,2.29-2.4,2.26c-4.27-0.08-8.55-0.11-12.83-0.02c-1.62,0.03-2.14-0.46-2.09-2.09
			c0.11-3.71,0.03-7.42,0.03-11.13C239.91,291.18,239.93,291.18,239.94,291.18z"/>
		<path class="st0" d="M460.45,291.45c0-3.49,0.08-6.99-0.04-10.48c-0.06-1.7,0.35-2.42,2.21-2.37c4.28,0.12,8.57,0.15,12.85,0
			c2.18-0.08,1.96,1.17,1.96,2.57c0,1.53,0.16,2.95-2.18,2.77c-2.47-0.19-4.97,0.06-7.44-0.11c-2.25-0.16-1.9,1.27-1.88,2.59
			c0.02,1.33-0.32,2.82,1.9,2.66c1.79-0.13,3.62,0.11,5.41-0.07c2.3-0.23,2.81,0.7,2.85,2.88c0.05,2.59-1.42,1.91-2.83,1.83
			c-1.24-0.07-2.52,0.2-3.71-0.04c-3.53-0.71-3.83,1.23-3.67,3.96c0.08,1.46,0.49,1.97,1.96,1.91c2.48-0.1,4.97,0.11,7.44-0.06
			c1.88-0.13,2.28,0.56,2.21,2.28c-0.07,1.59,0.07,2.75-2.21,2.65c-4.28-0.2-8.57-0.14-12.85-0.03c-1.7,0.04-2.08-0.59-2.04-2.14
			c0.09-3.6,0.03-7.21,0.03-10.82C460.43,291.45,460.44,291.45,460.45,291.45z"/>
		<path class="st0" d="M300.34,304.38c-2.14-0.25-5.61,1.16-7.25-0.55c-1.63-1.7-0.44-5.14-0.47-7.81
			c-0.06-4.95,0.05-9.91-0.04-14.86c-0.03-1.78,0.28-2.65,2.36-2.57c4.05,0.16,8.11,0.21,12.16,0c2.52-0.13,2.3,1.38,2.41,2.98
			c0.12,1.77-0.62,2.42-2.38,2.32c-2.02-0.13-4.05-0.06-6.08-0.07c-1.65-0.01-3.26-0.45-3.06,2.42c0.17,2.4,0.86,3.17,3.15,2.86
			c1.22-0.17,2.48,0.04,3.71-0.09c2.05-0.22,2.91,0.23,2.97,2.66c0.08,2.82-1.48,2.11-2.98,2.06c-1.12-0.04-2.28,0.12-3.37-0.06
			c-2.85-0.49-3.71,0.63-3.51,3.44c0.13,1.8,0.37,2.66,2.41,2.49c2.12-0.18,4.28,0.05,6.41-0.09c1.84-0.12,2.83,0.03,2.84,2.39
			c0.02,2.24-0.73,2.66-2.68,2.52C304.92,304.27,302.88,304.38,300.34,304.38z"/>
		<path class="st0" d="M159.68,304.38c-1.37,0-2.28-0.14-3.14,0.03c-2.38,0.45-3.54-0.62-3.8-2.87c-0.59-5.01-4.47-2.85-7.16-3.34
			c-2.92-0.53-3.31,1.51-3.68,3.51c-0.8,4.26-4,2.18-6.64,2.68c2.8-7.82,5.66-15.28,8.08-22.89c0.79-2.49,1.95-3.02,4.24-2.93
			c1.79,0.07,3.09,0.12,3.81,2.25C153.95,288.53,156.76,296.17,159.68,304.38z M147.33,284.6c-1.1,3.48-1.91,6.05-2.73,8.65
			c5.84,0.79,5.84,0.79,4.07-4.48C148.32,287.72,148,286.67,147.33,284.6z"/>
		<path class="st0" d="M187.28,304.11c2.9-8,5.83-15.93,8.61-23.92c0.86-2.47,2.73-1.3,4.21-1.56c1.56-0.27,2.29,0.37,2.85,2
			c2.37,6.97,4.98,13.85,7.48,20.77c0.34,0.95,1.45,2.53-0.03,2.75c-1.74,0.26-4.99,1.42-5.31-1c-0.75-5.62-4.37-5.05-8.19-4.97
			c-1.47,0.03-2.07,0.46-2.54,1.89C192.81,304.71,192.72,304.69,187.28,304.11z M199.25,284.94c-1.06,3.24-1.88,5.75-2.8,8.57
			c1.98,0,3.69,0,5.6,0C201.19,290.87,200.35,288.28,199.25,284.94z"/>
		<path class="st0" d="M392.07,279.02c5.8-0.85,5.8-0.85,8.08,3.92c0.95,1.99,1.9,3.99,3.07,6.46c1.21-2.43,2.45-4.39,3.18-6.52
			c1.32-3.91,3.8-5.22,8.02-3.89c-1.54,2.87-2.95,5.86-4.69,8.66c-2.74,4.4-4.58,8.98-3.74,14.27c0.44,2.75-1.33,2.34-3.05,2.5
			c-2.16,0.2-2.82-0.55-2.4-2.61c1.31-6.47-2.67-11.29-5.24-16.54C394.29,283.18,393.18,281.16,392.07,279.02z"/>
		<path class="st0" d="M443.61,294.14c0-2.25-0.25-4.53,0.06-6.74c0.44-3.1-0.82-3.82-3.64-3.58c-1.36,0.11-3.52,1.25-3.71-1.78
			c-0.16-2.49,0.32-3.63,3.21-3.47c4.94,0.27,9.9,0.15,14.85,0.05c1.86-0.04,2.34,0.71,2.19,2.4c-0.12,1.43,0.33,2.82-2.07,2.91
			c-5.22,0.19-5.19,0.33-5.16,5.55c0.03,4.16-0.21,8.33,0.05,12.47c0.18,2.86-1.54,2.27-3.17,2.44c-1.98,0.21-2.85-0.28-2.67-2.5
			C443.77,299.33,443.61,296.73,443.61,294.14z"/>
		<path class="st0" d="M351.91,294.16c0,2.36-0.02,4.72,0.01,7.09c0.03,2.72-2.37,4.2-4.98,3.1c-1.23-0.52-0.68-1.53-0.69-2.31
			c-0.05-4.84-0.28-9.69,0.05-14.51c0.22-3.25-0.97-4.12-3.88-3.67c-0.55,0.09-1.13-0.03-1.68,0.04c-2.17,0.3-1.98-1.11-1.96-2.54
			c0.03-1.47-0.33-2.87,2.07-2.79c5.28,0.17,10.58,0.15,15.87,0.03c2.01-0.05,2.47,0.69,2.41,2.54c-0.05,1.64-0.06,2.7-2.23,2.77
			c-5.06,0.18-5.06,0.3-5,5.53C351.92,291.01,351.9,292.59,351.91,294.16z"/>
	</g>
	<path class="st0" d="M353.74,87.23c0-2.35-0.73-2.78-2.84-2.76c-10.26,0.09-20.52,0.23-30.78-0.05c-3.61-0.1-5.14,1.17-6.63,4.36
		c-16.92,36.27-34.02,72.46-51.14,108.64c-1.25,2.65-2.08,5.56-4.13,7.81c-2.25-2.98-2.95-6.66-4.52-9.96
		c-8.43-17.75-20.66-32.19-36.96-43.22c-6.97-4.71-13.75-9.71-20.61-14.58c0,0,0,0,0,0c-0.82-2.17-2.64-3.56-4.12-5.2
		c-6.62-7.34-11.56-15.4-11.22-25.78c0.09-2.61,0.01-5.22,0.01-8.36c-1.57,3.43-3.15,6.36-4.26,9.45c-1.04,2.89-2.39,5.88-0.98,9.1
		c-2.82-0.89-3.17-3.76-4.6-5.76c-0.03,1.69-0.09,3.37-0.1,5.05c-0.05,44.18-0.07,88.35-0.2,132.53c-0.01,2.27,0.72,2.48,2.64,2.46
		c9.02-0.1,18.04-0.13,27.06,0.02c2.55,0.04,3.36-0.47,3.34-3.27c-0.13-30.99-0.09-61.98-0.09-92.97c0-2.52,0-5.03,0-7.75
		c1.65,0.9,2.31,2.18,2.92,3.49c4.12,8.95,8.25,17.9,12.33,26.86c10.81,23.73,21.62,47.46,32.35,71.23
		c0.82,1.82,1.75,2.49,3.74,2.42c4.39-0.15,8.8-0.19,13.19,0c2.14,0.09,3.23-0.63,4.07-2.53c2.76-6.21,5.69-12.35,8.52-18.53
		c11.53-25.14,23.05-50.28,34.59-75.42c1.96-4.28,3.96-8.54,6.33-13.64c0.07,1.33,0.11,1.72,0.11,2.12
		c-0.03,34.94-0.04,69.87-0.15,104.81c-0.01,2.4,0.27,3.28,3,3.21c8.56-0.22,17.14-0.21,25.7,0c2.87,0.07,3.46-0.76,3.45-3.52
		C353.66,194.07,353.66,140.65,353.74,87.23z"/>
</g>
</svg>
