<?xml version="1.0" encoding="utf-8"?>
<!-- Generator: Adobe Illustrator 26.0.1, SVG Export Plug-In . SVG Version: 6.00 Build 0)  -->
<svg version="1.1" id="Layer_1" xmlns="http://www.w3.org/2000/svg" xmlns:xlink="http://www.w3.org/1999/xlink" x="0px" y="0px"
	 viewBox="0 0 382.82 382.82" style="enable-background:new 0 0 382.82 382.82;" xml:space="preserve">
<style type="text/css">
	.st0{fill:#1C432A;}
	.st1{fill:#BC6C16;}
	.st2{fill:#FEFEFE;}
</style>
<g>
	<path class="st0" d="M368.48,191.14c0,46.28-0.15,92.55,0.07,138.83c0.12,24.7-19.07,43.95-43.27,43.9
		c-90.09-0.2-180.18-0.03-270.28-0.12c-22.33-0.02-40.26-17.33-40.33-39.52c-0.26-75.24-0.18-150.48-0.2-225.72
		c-0.01-20.47-0.59-40.98,0.34-61.41C15.76,25.9,32.11,9.31,52.9,9.22c91.92-0.41,183.84-0.27,275.76-0.05
		c22.45,0.05,39.73,18.08,39.78,40.64C368.54,96.92,368.47,144.03,368.48,191.14z M181.69,131.73c1.45,3.67,2.84,7.36,4.37,10.99
		c5.24,12.48,14.85,21.52,24.35,30.61c6.6,6.32,10.67,13.9,12.3,22.85c0.17,0.91-0.19,2.08,1.32,2.59c1.04-3.08,1.89-6.23,3.14-9.21
		c4.98-11.77,5.18-23.85,2.87-36.19c-0.89-4.76-0.89-9.58,0.45-14.32c1.17-4.12,3.36-7.49,7.9-7.91c4.5-0.41,8.73,0.26,11.43,4.95
		c1.45,2.52,3.67,4.88,6.07,6.52c3.28,2.24,7.14,4.01,11.24,2.11c3.73-1.72,2.45-5.71,3.56-8.64c1.99-5.22,6.15-9.61,5.58-15.8
		c-0.04-0.41,1.32-0.89,1.95-1.43c3.94-3.41,4.31-6.7,1.3-10.83c-1.48-2.04-3.28-3.71-5.3-5.23c-6.39-4.79-12.92-9.5-17.92-15.79
		c-4.41-5.55-9.08-10.57-15.79-13.33c-1.92-0.79-3.45-1.94-3.06-4.49c0.89-5.84-2.44-9.62-6.93-12.19
		c-11.75-6.7-24.24-7.41-37.07-3.58c-0.74,0.22-2.54,0.8-1.2,1.84c2.77,2.14,0.57,2.34-0.86,2.75
		c-11.31,3.19-18.18,11.19-22.96,21.32c-2.2,4.66-5.5,8.94-5.77,14.9c2.47-1.36,4.5-2.48,7.5-4.14c-6.21,11.08-7.14,22.04-6.6,33.3
		c0.56,11.63,4.43,21.45,15.3,28.36C177.63,144.57,180.69,138.37,181.69,131.73z M90.33,200.01c1.84-2.29,3.05-3.67,4.11-5.14
		c16.19-22.41,31.98-45.12,48.72-67.11c6.12-8.04,7.07-16.31,6.54-25.53c-0.1-1.84-0.49-2.57-2.56-2.56
		c-26.12,0.11-52.25,0.13-78.38,0.1c-2.58,0-2.95,1.19-2.89,3.36c0.12,4.15,0.25,8.33-0.07,12.47c-0.25,3.37,0.53,4.66,4.22,4.48
		c6.81-0.33,13.64-0.1,20.46-0.1c10.22,0,20.45,0,30.8,0c-0.21,0.81-0.21,1.16-0.37,1.38c-18.64,25.61-37.31,51.21-55.95,76.82
		c-0.95,1.3-2.09,2.43-2.02,4.37c0.17,4.48,0.13,8.98-0.01,13.47c-0.06,2.01,0.65,2.55,2.58,2.54c27.46-0.07,54.91-0.09,82.37-0.04
		c2.19,0,2.92-0.6,2.82-2.79c-0.17-3.99-0.29-8-0.04-11.97c0.2-3.08-0.75-3.88-3.85-3.83c-12.48,0.2-24.96,0.08-37.44,0.08
		C103.3,200.01,97.22,200.01,90.33,200.01z M257.58,230.78c-2.83,0-5.67,0.09-8.49-0.03c-2-0.09-2.57,0.58-2.33,2.59
		c1.31,10.73,6.06,19.22,15.9,24.28c13.09,6.74,26.81,6.39,40.69,3.21c12.51-2.87,25.12-14.22,23.16-32.35
		c-1.24-11.47-8.69-19.68-22.32-23.44c-9.03-2.49-18.51-3.57-26.96-7.89c-6.16-3.15-7.29-9.98-2.84-14.98
		c6.44-7.24,24.85-6.31,28.52,2.48c2.89,6.91,6.94,7.09,12.58,6.55c2.14-0.2,4.36-0.22,6.48,0.06c3.06,0.41,3.78-0.97,3.41-3.63
		c-1-7.3-3.7-13.79-9.62-18.42c-12.92-10.1-38.35-11.45-52.37-2.97c-9.7,5.87-13.42,14.74-12.73,25.69
		c0.65,10.28,6.2,17.22,15.39,21.41c4.36,1.98,8.93,3.36,13.59,4.48c6.09,1.46,12.3,2.53,18.12,4.93c4.18,1.72,7.3,4.43,7.86,9.35
		c0.57,5.01-1.37,8.79-5.44,11.46c-7.16,4.7-21.83,3.09-27.82-2.97c-1.28-1.29-2.8-2.58-2.99-4.49c-0.49-4.97-3.51-5.96-7.79-5.37
		C260.27,230.93,258.92,230.77,257.58,230.78z M181.51,195.65c0.92,1.51,1.21,1.87,1.38,2.28c8.23,19.57,16.45,39.15,24.68,58.72
		c0.61,1.44,0.56,3.74,2.51,3.83c4.81,0.22,9.64,0.09,14.47-0.05c1.72-0.05,1.64-1.76,2.13-2.93c3.01-7.13,6.2-14.17,9.06-21.36
		c1.69-4.25,4.49-8.29,4.6-12.93c0.28-12.39,0.1-24.8,0.1-37.2c-0.22-0.05-0.43-0.1-0.65-0.15c-7.31,16.58-14.63,33.15-21.96,49.77
		c-0.53-0.3-0.95-0.39-1.04-0.61c-7.67-18.34-15.3-36.69-22.97-55.03c-2.41-5.76-3.41-13.52-7.75-16.66
		c-4.62-3.34-12.48-0.46-18.87-1.04c-4.32-0.39-4.61,1.4-4.59,4.89c0.12,26.45,0.06,52.9,0.08,79.35c0,4.48-1.59,10.51,0.68,13.02
		c2.61,2.89,8.78,0.39,13.34,1c3.97,0.53,4.95-0.85,4.91-4.78C181.4,236.15,181.51,216.53,181.51,195.65z M242.19,315.34
		c0.34,0,0.68,0.01,1.01,0.01c0,2.93-0.03,5.86,0.01,8.78c0.02,1.25-0.36,2.84,1.81,2.71c2.26-0.14,1.4-1.88,1.42-2.98
		c0.1-4.15,0.15-8.3,0.01-12.44c-0.04-1.2,1.07-3.16-1.36-3.5c-1.91-0.27-3.41,0.03-4.16,2.25c-0.97,2.9-2.29,5.68-3.7,9.1
		c-1.47-3.58-2.78-6.39-3.79-9.31c-0.74-2.15-2.32-2.01-3.98-2.01c-2.56,0-1.74,1.96-1.76,3.25c-0.07,4.48,0.02,8.96-0.01,13.44
		c-0.01,1.22-0.2,2.3,1.61,2.34c1.79,0.03,2.22-0.76,2.16-2.4c-0.11-2.83-0.03-5.68-0.03-8.52c2.01,2.57,3.05,5.26,4.07,7.96
		c0.37,0.99-0.04,2.62,1.66,2.57c1.59-0.04,1.35-1.71,1.75-2.67C240.12,321.09,241.11,318.2,242.19,315.34z M141,286.94
		c0.23,0.06,0.47,0.13,0.7,0.19c0,2.76,0,5.53,0,8.29c0,1.18-0.13,2.29,1.68,2.33c1.93,0.05,2.13-0.95,2.11-2.48
		c-0.05-4.16,0.02-8.32-0.02-12.48c-0.01-1.57,0.49-3.38-2.12-3.68c-2.45-0.28-2.94,1.15-3.75,2.96c-1.07,2.37-0.95,5.4-3.51,7.29
		c-1.28-2.99-2.47-5.69-3.59-8.42c-0.73-1.78-2.21-1.79-3.73-1.75c-2.03,0.06-1.71,1.51-1.71,2.86c0.02,4.49,0.03,8.98-0.05,13.47
		c-0.02,1.39,0.23,2.17,1.84,2.24c1.84,0.08,1.69-1.09,1.7-2.26c0-2.82,0-5.64,0-8.46c1.44,1.11,1.66,2.43,2.33,3.45
		c1.02,1.54,0.49,4.38,3.22,4.49c2.82,0.12,2.38-2.73,3.34-4.26C140.15,289.58,140.49,288.21,141,286.94z M257.6,290.37
		c-1.64-3.85-2.96-6.6-3.98-9.45c-0.7-1.95-2.17-1.76-3.63-1.8c-2.33-0.07-1.52,1.72-1.54,2.85c-0.07,4.49-0.01,8.99-0.04,13.48
		c-0.01,1.26,0,2.33,1.76,2.29c1.74-0.04,1.69-1.09,1.66-2.34c-0.06-2.64-0.02-5.27-0.02-8.41c2.31,1.81,1.68,4.27,3.12,5.7
		c0.88,0.88,0.56,2.86,2.35,2.84c1.88-0.02,2.09-1.84,2.87-3.04c1.3-2,0.61-4.97,3.34-6.64c-0.24,3.41-0.46,6.54-0.7,9.66
		c-0.1,1.38,0.33,2.15,1.89,2.25c1.77,0.11,1.79-0.92,1.78-2.17c-0.02-4.33,0.03-8.66-0.02-12.98c-0.02-1.35,0.76-3.11-1.66-3.43
		c-2.15-0.29-3.46,0.41-4.12,2.54C259.84,284.27,258.87,286.79,257.6,290.37z M293.4,285.34c2.72,4.12,4.97,7.46,7.14,10.84
		c0.96,1.49,2.31,1.84,3.86,1.45c1.68-0.42,0.93-1.9,0.95-2.9c0.1-4.15,0.08-8.31,0.03-12.47c-0.02-1.36,0.55-3.24-1.95-3.08
		c-2.35,0.15-1.82,1.94-1.84,3.34c-0.05,2.69-0.01,5.38-0.01,8.82c-2.39-3.72-4.44-6.83-6.4-9.99c-0.97-1.56-2.15-2.45-4.07-2.11
		c-2.4,0.43-1.41,2.32-1.46,3.59c-0.14,3.82-0.13,7.65-0.04,11.47c0.03,1.41-0.92,3.56,2.04,3.45c2.63-0.09,1.65-2,1.71-3.25
		C293.49,291.76,293.4,289,293.4,285.34z M182.11,291.12c-2.74-4.24-4.73-7.16-6.55-10.19c-0.92-1.53-2.25-1.99-3.77-1.81
		c-2.16,0.26-1.09,2.08-1.12,3.15c-0.13,4.14-0.1,8.3-0.03,12.44c0.02,1.3-0.69,3.21,1.94,3.02c2.13-0.15,1.64-1.63,1.65-2.88
		c0.02-2.7,0.01-5.4,0.01-9.05c2.68,4.01,4.93,7.16,6.92,10.45c0.87,1.44,1.96,1.64,3.3,1.41c1.81-0.31,1.02-1.83,1.05-2.8
		c0.1-4.48,0.07-8.96,0.08-13.44c0-1.18,0.07-2.37-1.69-2.32c-1.65,0.05-1.78,1.15-1.79,2.38
		C182.11,284.21,182.11,286.92,182.11,291.12z M225.48,291.5c1.42-4.65-2.19-3.48-4.86-3.45c-0.92,0.01-2.08-0.47-2.41,0.96
		c-0.32,1.39,0.54,1.72,1.68,1.69c1.26-0.03,1.76,0.65,1.78,1.82c0.02,1.79-1.6,1.61-2.51,1.73c-2.03,0.26-4.28-0.1-5.09-2.2
		c-1.01-2.61-1.46-5.5,0.58-7.94c1.77-2.12,4.03-1.96,6.22-0.69c1.32,0.76,2.7,1.87,3.6-0.17c0.84-1.91-0.96-2.56-2.23-3.21
		c-4.46-2.25-9.48-0.86-11.6,3.15c-2.53,4.78-1.1,11.36,2.98,13.68C219.06,299.96,225.47,297.3,225.48,291.5z M115.46,288.53
		c-0.03-5.8-3.07-9.51-7.82-9.57c-4.71-0.05-7.86,3.73-7.88,9.48c-0.03,5.89,2.88,9.39,7.82,9.4
		C112.51,297.87,115.48,294.35,115.46,288.53z M230.63,288.18c0,9.96,0,9.96,9.98,9.55c0.17-0.01,0.33,0.01,0.5,0
		c1.27-0.06,2.8,0.35,2.59-1.88c-0.19-2.01-1.55-1.77-2.87-1.74c-1.33,0.02-2.67-0.03-3.99,0.08c-1.67,0.14-2.37-0.44-2.4-2.21
		c-0.03-1.74,0.58-2.14,2.27-2.32c1.91-0.19,5.38,1.51,5.46-1.04c0.1-3.45-3.51-1.29-5.44-1.65c-1.68-0.32-2.22-1.01-2.24-2.59
		c-0.02-1.87,1.28-1.59,2.39-1.62c1.5-0.04,2.99-0.05,4.49,0c1.32,0.04,2.26-0.17,2.15-1.85c-0.08-1.28-0.77-1.51-1.88-1.73
		C232.45,277.37,230.62,278.84,230.63,288.18z M277.8,297.73c2.13,0,3.47,0.08,4.79-0.02c1.14-0.09,2.81,0.7,2.81-1.6
		c0-1.96-1.16-2.05-2.63-1.98c-1.49,0.07-2.98,0-4.48,0.06c-1.31,0.05-2.27-0.13-2.18-1.82c0.07-1.39,0.05-2.44,1.98-2.69
		c2.01-0.26,5.74,1.47,5.67-1.44c-0.07-2.88-3.79-1.04-5.86-1.32c-1.67-0.23-1.66-1.17-1.81-2.36c-0.21-1.77,0.89-1.81,2.11-1.8
		c1.66,0.01,3.32,0.04,4.97,0c0.97-0.02,2.06,0.06,2.13-1.4c0.08-1.49-0.71-1.88-2.08-2.13c-9.36-1.69-10.7-0.63-10.72,8.7
		c0,1.16,0.11,2.33-0.03,3.48C271.9,296.07,272.57,299.48,277.8,297.73z M68.1,294.25c2.71-3.86,5.37-7.4,7.76-11.12
		c1.54-2.4,1.67-4.37-2.29-4.03c-2.64,0.23-5.32,0.11-7.98,0.16c-1.26,0.02-2.75-0.41-2.86,1.72c-0.11,2.25,1.48,1.72,2.69,1.75
		c2.03,0.05,4.07,0.01,6.59,0.01c-1.52,2.02-2.61,3.25-3.47,4.64c-2.02,3.29-7.47,6.56-5.6,9.52c1.67,2.65,7.7,0.51,11.79,0.82
		c0.17,0.01,0.33-0.02,0.5,0c1.8,0.16,1.71-1.09,1.71-2.28c0-1.53-0.95-1.29-2.02-1.23C72.8,294.33,70.68,294.25,68.1,294.25z
		 M95.65,288.4c-0.01-6.06-2.8-9.55-7.57-9.47c-4.49,0.07-7.51,3.73-7.56,9.15c-0.07,6.24,2.83,9.91,7.79,9.86
		C93.26,297.9,95.66,294.78,95.65,288.4z M181.86,307.89c-3.5-0.09-6.23,1.08-7.1,4.78c-1.2,5.06,2.95,5.29,6.02,6.56
		c1.56,0.64,4.79,0.33,3.43,3.37c-0.97,2.17-3.32,1.45-5.25,0.67c-1.37-0.55-3.1-2.81-4.14-0.63c-1.06,2.24,1.31,3.39,3.24,4.05
		c1.23,0.42,2.59,0.96,3.81,0.8c3.17-0.41,6.2-1.19,6.63-5.29c0.43-4.07-1.9-5.6-5.33-6.35c-1.12-0.25-2.2-0.66-3.29-1.01
		c-0.88-0.29-1.43-0.91-1.26-1.84c0.16-0.93,0.96-1.39,1.81-1.38c1.13,0.02,2.48-0.06,3.35,0.5c1.46,0.94,2.96,1.37,3.67-0.25
		c0.73-1.65-0.97-2.5-2.25-3.32C184.14,307.87,183.02,307.91,181.86,307.89z M146.1,327.51c5.36,0.06,8.72-3.46,7.35-7.66
		c-0.94-2.88-3.48-3.59-6.2-4.15c-1.46-0.3-3.94-0.75-3.37-2.76c0.61-2.19,2.92-1.57,4.69-1.01c0.76,0.24,1.46,0.95,2.18,0.94
		c1.69-0.04,2.57-1.08,1.53-2.6c-1.86-2.72-4.84-2.69-7.63-2.26c-2.69,0.41-4.41,2.27-4.8,4.98c-0.42,2.93,1.31,4.64,3.86,5.59
		c1.38,0.52,2.88,0.72,4.26,1.23c0.93,0.34,1.85,0.99,1.64,2.17c-0.2,1.09-1.17,1.57-2.15,1.76c-1.31,0.25-2.63,0.3-3.82-0.55
		c-1.35-0.96-3.12-2.38-4.02-0.05c-0.65,1.72,1.4,2.77,2.86,3.44C143.66,327.12,145.02,327.25,146.1,327.51z M210.61,317.22
		c-0.04,9.57-0.03,9.68,7.85,9.53c1.63-0.03,4.75,1.64,4.83-1.33c0.08-3.35-3.26-1.3-5.02-1.85c-0.6-0.19-1.32-0.03-1.98-0.03
		c-1.99,0-1.82-1.42-1.91-2.77c-0.1-1.5,0.57-1.82,1.99-2.07c1.96-0.35,5.56,1.64,5.54-1.62c-0.02-2.56-3.52-1.07-5.44-1.2
		c-1.89-0.13-2.08-0.99-2.13-2.51c-0.06-1.91,1.2-1.62,2.32-1.64c1.5-0.03,2.99-0.01,4.49-0.01c1.23,0,2.33-0.06,2.3-1.77
		c-0.02-1.5-0.79-1.86-2.16-2.07c-9.49-1.49-10.64-0.57-10.68,8.85C210.61,316.88,210.61,317.05,210.61,317.22z M189.48,297.1
		c2.5,1.35,3.54,0.43,4.64-1.76c1.22-2.43,7.49-2.5,8.22-0.05c0.95,3.2,2.69,2.4,4.85,2.19c-1.94-5.23-3.87-10.14-5.54-15.12
		c-0.56-1.66-0.75-3.2-2.97-3.27c-2.05-0.06-2.84,1.08-3.46,2.82C193.39,286.99,191.41,292.02,189.48,297.1z M149.4,297.22
		c4.85,2.26,4.52-3.93,8.8-3.98c4.32-0.05,3.95,6.87,8.73,3.9c-1.76-5.02-3.64-10.11-5.3-15.26c-0.5-1.56-0.85-2.69-2.82-2.8
		c-1.94-0.11-2.62,0.98-3.2,2.45C153.57,286.71,151.5,291.9,149.4,297.22z M314.56,282.65c0,4.6,0.04,8.5-0.02,12.41
		c-0.03,1.67,0.09,2.77,2.3,2.73c2.32-0.05,2.16-1.39,2.15-2.94c-0.02-2.48,0.14-4.96,0.04-7.43c-0.11-2.76-0.44-5.47,3.79-4.69
		c1.13,0.21,1.9-0.22,1.89-1.58c-0.02-1.36-0.38-2.1-2-1.99c-2.47,0.16-5.01-0.27-7.41,0.17c-1.89,0.35-5.47-1.97-5.46,1.87
		C309.84,284.46,313.5,281.63,314.56,282.65z M197.06,319.31c-0.02,0-0.04,0-0.06,0c0,1.5,0.01,2.99,0,4.49
		c-0.01,1.38-0.81,3.05,1.79,3.11c2.46,0.06,2.09-1.53,2.1-2.98c0.03-2.83,0.19-5.67-0.03-8.48c-0.2-2.56,0.11-4.24,3.26-3.75
		c1.51,0.23,2.53-0.12,2.43-2.07c-0.09-1.73-1.1-1.72-2.33-1.71c-3.49,0.03-6.99,0.07-10.48,0.02c-1.35-0.02-2.14,0.15-2.14,1.82
		c0,1.58,0.66,2.17,2.05,1.92c3.71-0.68,3.54,1.69,3.4,4.14C197,316.98,197.06,318.15,197.06,319.31z M155.8,308.18
		c2.36,5.76,7.32,10.5,6.16,17.41c-0.22,1.31,1.1,1.35,2.13,1.31c1-0.04,2.25-0.06,2.02-1.45c-1.14-6.92,4.07-11.54,6.27-17.31
		c-6.64-1.63-4.98,5.79-8.34,7.45C161.05,313.41,162.35,306.72,155.8,308.18z"/>
	<path class="st1" d="M181.69,131.73c-1,6.65-4.05,12.84-2.81,20.02c-10.88-6.91-14.74-16.73-15.3-28.36
		c-0.54-11.25,0.39-22.22,6.6-33.3c-3,1.66-5.04,2.78-7.5,4.14c0.27-5.95,3.57-10.24,5.77-14.9c4.78-10.13,11.65-18.13,22.96-21.32
		c1.43-0.4,3.63-0.61,0.86-2.75c-1.34-1.04,0.46-1.62,1.2-1.84c12.83-3.83,25.32-3.12,37.07,3.58c4.49,2.56,7.82,6.35,6.93,12.19
		c-0.39,2.54,1.14,3.7,3.06,4.49c6.71,2.76,11.38,7.79,15.79,13.33c5,6.29,11.53,11,17.92,15.79c2.02,1.51,3.82,3.19,5.3,5.23
		c3,4.13,2.64,7.42-1.3,10.83c-0.63,0.54-1.98,1.02-1.95,1.43c0.56,6.19-3.59,10.58-5.58,15.8c-1.11,2.92,0.17,6.92-3.56,8.64
		c-4.11,1.9-7.96,0.13-11.24-2.11c-2.41-1.64-4.62-4-6.07-6.52c-2.7-4.69-6.92-5.36-11.43-4.95c-4.54,0.42-6.73,3.79-7.9,7.91
		c-1.34,4.74-1.34,9.56-0.45,14.32c2.3,12.34,2.11,24.43-2.87,36.19c-1.26,2.98-2.1,6.13-3.14,9.21c-1.51-0.51-1.15-1.68-1.32-2.59
		c-1.63-8.95-5.7-16.53-12.3-22.85c-9.5-9.09-19.1-18.13-24.35-30.61C184.53,139.09,183.14,135.39,181.69,131.73z M251.86,92.27
		c-3.87-1.81-6.83-3.76-10.78-2.83C244.11,94.8,246.1,95.37,251.86,92.27z"/>
	<path class="st2" d="M90.33,200.01c6.88,0,12.97,0,19.06,0c12.48,0,24.96,0.12,37.44-0.08c3.1-0.05,4.04,0.75,3.85,3.83
		c-0.25,3.97-0.13,7.98,0.04,11.97c0.09,2.19-0.63,2.8-2.82,2.79c-27.46-0.05-54.91-0.03-82.37,0.04c-1.92,0-2.64-0.53-2.58-2.54
		c0.14-4.49,0.18-8.98,0.01-13.47c-0.07-1.94,1.07-3.07,2.02-4.37c18.64-25.61,37.3-51.21,55.95-76.82
		c0.16-0.22,0.16-0.56,0.37-1.38c-10.36,0-20.58,0-30.8,0c-6.82,0-13.66-0.23-20.46,0.1c-3.69,0.18-4.47-1.11-4.22-4.48
		c0.31-4.14,0.19-8.31,0.07-12.47c-0.06-2.17,0.31-3.37,2.89-3.36c26.13,0.04,52.25,0.01,78.38-0.1c2.08-0.01,2.46,0.72,2.56,2.56
		c0.53,9.21-0.42,17.49-6.54,25.53c-16.74,21.99-32.54,44.7-48.72,67.11C93.38,196.34,92.18,197.71,90.33,200.01z"/>
	<path class="st2" d="M257.58,230.78c1.33-0.01,2.69,0.15,3.99-0.03c4.29-0.6,7.3,0.4,7.79,5.37c0.19,1.91,1.71,3.2,2.99,4.49
		c5.99,6.06,20.66,7.66,27.82,2.97c4.07-2.67,6.01-6.44,5.44-11.46c-0.56-4.92-3.68-7.63-7.86-9.35
		c-5.82-2.39-12.03-3.46-18.12-4.93c-4.66-1.12-9.24-2.49-13.59-4.48c-9.19-4.19-14.74-11.13-15.39-21.41
		c-0.7-10.95,3.03-19.82,12.73-25.69c14.02-8.48,39.45-7.13,52.37,2.97c5.93,4.63,8.62,11.12,9.62,18.42
		c0.36,2.66-0.35,4.04-3.41,3.63c-2.13-0.29-4.34-0.26-6.48-0.06c-5.65,0.53-9.69,0.35-12.58-6.55c-3.68-8.79-22.08-9.71-28.52-2.48
		c-4.45,4.99-3.32,11.83,2.84,14.98c8.45,4.32,17.93,5.4,26.96,7.89c13.63,3.76,21.08,11.97,22.32,23.44
		c1.96,18.12-10.65,29.48-23.16,32.35c-13.88,3.19-27.6,3.54-40.69-3.21c-9.84-5.07-14.59-13.55-15.9-24.28
		c-0.25-2.01,0.33-2.68,2.33-2.59C251.92,230.88,254.75,230.78,257.58,230.78z"/>
	<path class="st2" d="M181.51,195.65c0,20.88-0.11,40.5,0.1,60.12c0.04,3.93-0.94,5.31-4.91,4.78c-4.56-0.61-10.73,1.9-13.34-1
		c-2.26-2.51-0.67-8.54-0.68-13.02c-0.02-26.45,0.04-52.9-0.08-79.35c-0.02-3.49,0.28-5.29,4.59-4.89
		c6.39,0.58,14.25-2.3,18.87,1.04c4.33,3.13,5.34,10.9,7.75,16.66c7.66,18.34,15.3,36.69,22.97,55.03c0.09,0.23,0.52,0.32,1.04,0.61
		c7.33-16.62,14.64-33.19,21.96-49.77c0.22,0.05,0.43,0.1,0.65,0.15c0,12.4,0.18,24.8-0.1,37.2c-0.1,4.63-2.91,8.68-4.6,12.93
		c-2.86,7.18-6.05,14.23-9.06,21.36c-0.5,1.18-0.41,2.89-2.13,2.93c-4.82,0.14-9.65,0.27-14.47,0.05c-1.96-0.09-1.91-2.39-2.51-3.83
		c-8.23-19.57-16.45-39.15-24.68-58.72C182.72,197.53,182.44,197.17,181.51,195.65z"/>
	<path class="st2" d="M242.19,315.34c-1.07,2.86-2.07,5.76-3.25,8.57c-0.41,0.96-0.17,2.62-1.75,2.67c-1.7,0.05-1.29-1.57-1.66-2.57
		c-1.01-2.7-2.06-5.39-4.07-7.96c0,2.84-0.08,5.68,0.03,8.52c0.06,1.64-0.37,2.43-2.16,2.4c-1.81-0.03-1.62-1.12-1.61-2.34
		c0.03-4.48-0.06-8.96,0.01-13.44c0.02-1.29-0.8-3.24,1.76-3.25c1.66,0,3.24-0.14,3.98,2.01c1,2.92,2.31,5.73,3.79,9.31
		c1.41-3.41,2.72-6.2,3.7-9.1c0.75-2.23,2.25-2.52,4.16-2.25c2.43,0.34,1.32,2.3,1.36,3.5c0.14,4.14,0.09,8.3-0.01,12.44
		c-0.03,1.11,0.84,2.84-1.42,2.98c-2.17,0.13-1.8-1.46-1.81-2.71c-0.04-2.93-0.01-5.86-0.01-8.78
		C242.86,315.34,242.52,315.34,242.19,315.34z"/>
	<path class="st2" d="M141,286.94c-0.51,1.27-0.84,2.64-1.56,3.78c-0.96,1.53-0.52,4.38-3.34,4.26c-2.73-0.12-2.2-2.95-3.22-4.49
		c-0.67-1.02-0.89-2.34-2.33-3.45c0,2.82,0,5.64,0,8.46c0,1.16,0.14,2.33-1.7,2.26c-1.6-0.07-1.86-0.85-1.84-2.24
		c0.08-4.49,0.07-8.98,0.05-13.47c-0.01-1.34-0.32-2.79,1.71-2.86c1.52-0.05,3-0.03,3.73,1.75c1.12,2.74,2.31,5.44,3.59,8.42
		c2.56-1.88,2.44-4.91,3.51-7.29c0.81-1.8,1.31-3.24,3.75-2.96c2.61,0.3,2.1,2.11,2.12,3.68c0.04,4.16-0.03,8.32,0.02,12.48
		c0.02,1.53-0.18,2.53-2.11,2.48c-1.81-0.04-1.68-1.15-1.68-2.33c0-2.76,0-5.53,0-8.29C141.47,287.07,141.23,287.01,141,286.94z"/>
	<path class="st2" d="M257.6,290.37c1.27-3.58,2.24-6.1,3.05-8.67c0.66-2.12,1.97-2.83,4.12-2.54c2.42,0.32,1.65,2.09,1.66,3.43
		c0.05,4.33,0,8.66,0.02,12.98c0.01,1.25-0.02,2.28-1.78,2.17c-1.56-0.1-1.99-0.86-1.89-2.25c0.24-3.12,0.45-6.25,0.7-9.66
		c-2.73,1.68-2.04,4.65-3.34,6.64c-0.78,1.2-1,3.02-2.87,3.04c-1.79,0.02-1.47-1.96-2.35-2.84c-1.43-1.43-0.8-3.89-3.12-5.7
		c0,3.13-0.04,5.77,0.02,8.41c0.03,1.25,0.07,2.3-1.66,2.34c-1.75,0.04-1.76-1.03-1.76-2.29c0.03-4.49-0.03-8.99,0.04-13.48
		c0.02-1.12-0.8-2.92,1.54-2.85c1.47,0.04,2.94-0.15,3.63,1.8C254.64,283.77,255.96,286.52,257.6,290.37z"/>
	<path class="st2" d="M293.4,285.34c0,3.66,0.09,6.41-0.04,9.16c-0.06,1.24,0.92,3.15-1.71,3.25c-2.96,0.11-2-2.04-2.04-3.45
		c-0.09-3.82-0.1-7.65,0.04-11.47c0.05-1.27-0.94-3.16,1.46-3.59c1.93-0.34,3.11,0.55,4.07,2.11c1.96,3.16,4.01,6.27,6.4,9.99
		c0-3.44-0.03-6.13,0.01-8.82c0.02-1.4-0.51-3.19,1.84-3.34c2.5-0.16,1.93,1.72,1.95,3.08c0.05,4.15,0.07,8.31-0.03,12.47
		c-0.02,0.99,0.73,2.48-0.95,2.9c-1.55,0.39-2.9,0.05-3.86-1.45C298.37,292.8,296.13,289.47,293.4,285.34z"/>
	<path class="st2" d="M182.11,291.12c0-4.21,0-6.91,0-9.62c0-1.23,0.14-2.33,1.79-2.38c1.76-0.06,1.7,1.14,1.69,2.32
		c-0.01,4.48,0.02,8.96-0.08,13.44c-0.02,0.97,0.76,2.49-1.05,2.8c-1.35,0.23-2.44,0.03-3.3-1.41c-1.99-3.3-4.24-6.44-6.92-10.45
		c0,3.65,0.01,6.35-0.01,9.05c-0.01,1.25,0.47,2.73-1.65,2.88c-2.63,0.19-1.91-1.72-1.94-3.02c-0.07-4.15-0.1-8.3,0.03-12.44
		c0.04-1.07-1.04-2.9,1.12-3.15c1.51-0.18,2.85,0.28,3.77,1.81C177.38,283.96,179.37,286.88,182.11,291.12z"/>
	<path class="st2" d="M225.48,291.5c-0.01,5.8-6.42,8.46-11.86,5.37c-4.08-2.32-5.51-8.9-2.98-13.68c2.12-4.01,7.14-5.41,11.6-3.15
		c1.27,0.64,3.07,1.3,2.23,3.21c-0.9,2.05-2.28,0.93-3.6,0.17c-2.2-1.27-4.45-1.42-6.22,0.69c-2.04,2.44-1.59,5.34-0.58,7.94
		c0.81,2.1,3.06,2.47,5.09,2.2c0.92-0.12,2.53,0.06,2.51-1.73c-0.01-1.17-0.51-1.85-1.78-1.82c-1.14,0.03-2-0.3-1.68-1.69
		c0.33-1.43,1.49-0.95,2.41-0.96C223.29,288.02,226.9,286.85,225.48,291.5z"/>
	<path class="st2" d="M115.46,288.53c0.03,5.82-2.95,9.34-7.88,9.32c-4.94-0.02-7.84-3.51-7.82-9.4c0.02-5.75,3.17-9.54,7.88-9.48
		C112.39,279.02,115.43,282.73,115.46,288.53z M103.6,288.47c0.69,2.55,0.63,6.1,4.32,6.06c2.99-0.03,3.65-3.05,3.62-5.56
		c-0.04-2.73-0.07-6.08-3.86-6.3C103.84,282.45,104.47,286.02,103.6,288.47z"/>
	<path class="st2" d="M230.63,288.18c0-9.34,1.83-10.81,11-9.01c1.12,0.22,1.8,0.45,1.88,1.73c0.11,1.67-0.83,1.89-2.15,1.85
		c-1.49-0.05-2.99-0.03-4.49,0c-1.11,0.03-2.41-0.26-2.39,1.62c0.02,1.58,0.56,2.27,2.24,2.59c1.93,0.37,5.54-1.8,5.44,1.65
		c-0.08,2.55-3.55,0.85-5.46,1.04c-1.69,0.17-2.3,0.58-2.27,2.32c0.03,1.77,0.72,2.35,2.4,2.21c1.32-0.11,2.66-0.06,3.99-0.08
		c1.32-0.02,2.69-0.26,2.87,1.74c0.21,2.24-1.32,1.82-2.59,1.88c-0.17,0.01-0.33,0-0.5,0C230.63,298.14,230.63,298.14,230.63,288.18
		z"/>
	<path class="st2" d="M277.8,297.73c-5.23,1.75-5.89-1.65-5.32-6.33c0.14-1.14,0.02-2.32,0.03-3.48c0.02-9.33,1.36-10.39,10.72-8.7
		c1.36,0.25,2.16,0.64,2.08,2.13c-0.08,1.46-1.16,1.38-2.13,1.4c-1.66,0.03-3.32,0.01-4.97,0c-1.23-0.01-2.32,0.03-2.11,1.8
		c0.14,1.2,0.14,2.14,1.81,2.36c2.07,0.28,5.79-1.56,5.86,1.32c0.07,2.92-3.66,1.18-5.67,1.44c-1.94,0.25-1.91,1.3-1.98,2.69
		c-0.09,1.69,0.88,1.87,2.18,1.82c1.49-0.05,2.99,0.02,4.48-0.06c1.47-0.07,2.63,0.03,2.63,1.98c0,2.3-1.67,1.52-2.81,1.6
		C281.27,297.8,279.93,297.73,277.8,297.73z"/>
	<path class="st2" d="M68.1,294.25c2.58,0,4.7,0.08,6.82-0.04c1.07-0.06,2.01-0.31,2.02,1.23c0,1.19,0.09,2.44-1.71,2.28
		c-0.16-0.01-0.33,0.01-0.5,0c-4.09-0.31-10.12,1.82-11.79-0.82c-1.87-2.96,3.58-6.24,5.6-9.52c0.85-1.38,1.94-2.62,3.47-4.64
		c-2.53,0-4.56,0.04-6.59-0.01c-1.21-0.03-2.8,0.5-2.69-1.75c0.11-2.12,1.59-1.69,2.86-1.72c2.66-0.05,5.34,0.07,7.98-0.16
		c3.95-0.35,3.82,1.63,2.29,4.03C73.47,286.85,70.81,290.39,68.1,294.25z"/>
	<path class="st2" d="M95.65,288.4c0.01,6.39-2.38,9.51-7.34,9.55c-4.96,0.05-7.86-3.62-7.79-9.86c0.06-5.43,3.08-9.08,7.56-9.15
		C92.84,278.85,95.63,282.34,95.65,288.4z M91.83,289.72c-0.11-3.62,0.15-7.08-3.73-7.08c-3.49,0-3.54,3.16-3.57,5.9
		c-0.03,2.8,0.34,5.85,3.57,6.01C91.47,294.73,91.98,291.75,91.83,289.72z"/>
	<path class="st2" d="M181.86,307.9c1.16,0.02,2.28-0.03,3.35,0.65c1.28,0.81,2.98,1.67,2.25,3.32c-0.72,1.63-2.21,1.19-3.67,0.25
		c-0.87-0.56-2.22-0.48-3.35-0.5c-0.85-0.01-1.65,0.45-1.81,1.38c-0.16,0.93,0.38,1.55,1.26,1.84c1.09,0.36,2.17,0.77,3.29,1.01
		c3.43,0.75,5.76,2.28,5.33,6.35c-0.43,4.1-3.46,4.88-6.63,5.29c-1.22,0.16-2.58-0.38-3.81-0.8c-1.93-0.66-4.3-1.82-3.24-4.05
		c1.03-2.18,2.77,0.08,4.14,0.63c1.93,0.78,4.28,1.5,5.25-0.67c1.35-3.03-1.87-2.72-3.43-3.37c-3.08-1.27-7.22-1.5-6.02-6.56
		C175.63,308.97,178.36,307.8,181.86,307.9z"/>
	<path class="st2" d="M146.1,327.51c-1.08-0.26-2.45-0.39-3.63-0.93c-1.46-0.67-3.51-1.72-2.86-3.44c0.89-2.33,2.66-0.91,4.02,0.05
		c1.19,0.85,2.51,0.8,3.82,0.55c0.98-0.19,1.96-0.67,2.15-1.76c0.22-1.19-0.7-1.83-1.64-2.17c-1.39-0.51-2.88-0.71-4.26-1.23
		c-2.55-0.95-4.29-2.66-3.86-5.59c0.39-2.71,2.11-4.57,4.8-4.98c2.8-0.43,5.77-0.46,7.63,2.26c1.04,1.52,0.16,2.57-1.53,2.6
		c-0.72,0.02-1.42-0.7-2.18-0.94c-1.77-0.56-4.08-1.18-4.69,1.01c-0.56,2.01,1.91,2.46,3.37,2.76c2.72,0.55,5.26,1.27,6.2,4.15
		C154.83,324.04,151.46,327.57,146.1,327.51z"/>
	<path class="st2" d="M210.61,317.22c0-0.17,0-0.33,0-0.5c0.04-9.42,1.19-10.34,10.68-8.85c1.36,0.21,2.13,0.57,2.16,2.07
		c0.03,1.71-1.07,1.78-2.3,1.77c-1.5-0.01-2.99-0.02-4.49,0.01c-1.12,0.02-2.38-0.27-2.32,1.64c0.05,1.52,0.24,2.39,2.13,2.51
		c1.92,0.13,5.41-1.37,5.44,1.2c0.03,3.26-3.58,1.27-5.54,1.62c-1.42,0.26-2.08,0.57-1.99,2.07c0.09,1.35-0.08,2.77,1.91,2.77
		c0.66,0,1.38-0.16,1.98,0.03c1.76,0.55,5.1-1.49,5.02,1.85c-0.07,2.97-3.2,1.3-4.83,1.33
		C210.58,326.89,210.58,326.78,210.61,317.22z"/>
	<path class="st2" d="M189.48,297.1c1.93-5.08,3.91-10.11,5.74-15.19c0.63-1.74,1.42-2.88,3.46-2.82c2.22,0.07,2.41,1.61,2.97,3.27
		c1.67,4.99,3.6,9.89,5.54,15.12c-2.17,0.21-3.9,1.01-4.85-2.19c-0.73-2.44-7-2.38-8.22,0.05
		C193.02,297.53,191.98,298.45,189.48,297.1z M198.22,283.08c-1.03,2.91-1.77,4.99-2.52,7.1c1.62,0.69,3.02,0.68,4.63,0.1
		C199.74,288.25,199.15,286.25,198.22,283.08z"/>
	<path class="st2" d="M149.4,297.22c2.11-5.32,4.17-10.5,6.22-15.7c0.58-1.47,1.26-2.56,3.2-2.45c1.97,0.11,2.31,1.24,2.82,2.8
		c1.66,5.15,3.54,10.24,5.3,15.26c-4.79,2.97-4.42-3.95-8.73-3.9C153.92,293.29,154.24,299.48,149.4,297.22z M155.77,290.15
		c1.64,0.65,4,1.05,4.18-0.08c0.32-1.93-0.16-4.29-1.94-6.06C157.21,286.21,156.5,288.16,155.77,290.15z"/>
	<path class="st2" d="M314.56,282.65c-1.06-1.02-4.73,1.81-4.73-1.46c-0.01-3.84,3.56-1.52,5.46-1.87c2.4-0.44,4.94-0.01,7.41-0.17
		c1.62-0.1,1.98,0.63,2,1.99c0.02,1.35-0.76,1.79-1.89,1.58c-4.23-0.78-3.9,1.94-3.79,4.69c0.1,2.47-0.06,4.96-0.04,7.43
		c0.01,1.55,0.17,2.89-2.15,2.94c-2.2,0.04-2.32-1.06-2.3-2.73C314.61,291.16,314.56,287.25,314.56,282.65z"/>
	<path class="st2" d="M197.06,319.31c0-1.16-0.05-2.33,0.01-3.49c0.14-2.45,0.3-4.82-3.4-4.14c-1.4,0.25-2.06-0.34-2.05-1.92
		c0-1.67,0.79-1.84,2.14-1.82c3.49,0.06,6.98,0.01,10.48-0.02c1.23-0.01,2.24-0.02,2.33,1.71c0.1,1.95-0.92,2.3-2.43,2.07
		c-3.15-0.49-3.46,1.19-3.26,3.75c0.22,2.81,0.05,5.65,0.03,8.48c-0.01,1.45,0.35,3.04-2.1,2.98c-2.6-0.06-1.8-1.73-1.79-3.11
		c0.01-1.5,0-2.99,0-4.49C197.02,319.31,197.04,319.31,197.06,319.31z"/>
	<path class="st2" d="M155.8,308.18c6.56-1.47,5.26,5.23,8.23,7.42c3.36-1.66,1.7-9.08,8.34-7.45c-2.2,5.77-7.41,10.39-6.27,17.31
		c0.23,1.39-1.01,1.41-2.02,1.45c-1.02,0.04-2.34,0-2.13-1.31C163.12,318.68,158.16,313.95,155.8,308.18z"/>
	<path class="st0" d="M251.86,92.27c-5.76,3.1-7.75,2.53-10.78-2.83C245.03,88.51,247.99,90.47,251.86,92.27z"/>
	<path class="st0" d="M103.6,288.47c0.87-2.44,0.24-6.02,4.08-5.79c3.78,0.22,3.82,3.57,3.86,6.3c0.04,2.5-0.63,5.53-3.62,5.56
		C104.24,294.57,104.29,291.02,103.6,288.47z"/>
	<path class="st0" d="M91.83,289.72c0.15,2.02-0.35,5-3.74,4.83c-3.22-0.16-3.6-3.21-3.57-6.01c0.03-2.74,0.09-5.89,3.57-5.9
		C91.97,282.64,91.71,286.1,91.83,289.72z"/>
	<path class="st0" d="M198.22,283.08c0.93,3.17,1.51,5.17,2.11,7.2c-1.6,0.58-3.01,0.59-4.63-0.1
		C196.45,288.07,197.19,285.99,198.22,283.08z"/>
	<path class="st0" d="M155.77,290.15c0.73-1.99,1.44-3.94,2.24-6.14c1.78,1.76,2.27,4.13,1.94,6.06
		C159.77,291.2,157.41,290.8,155.77,290.15z"/>
</g>
</svg>
